<svg width="48" height="48" viewBox="0 0 48 48" fill="none" xmlns="http://www.w3.org/2000/svg">
<circle cx="24" cy="24" r="24" fill="#8ECAD7"/>
<path fill-rule="evenodd" clip-rule="evenodd" d="M34.1943 11H20.0281V17.2102H14V37.5714H34.1943V11Z" fill="#D3F6FF"/>
<path d="M20.0281 11L14 17.2102H20.0281V11Z" fill="#D3F6FF"/>
<path d="M20.0281 11H34.1943V37.5714H14V17.2102M20.0281 11L14 17.2102M20.0281 11V17.2102H14" stroke="#5D6369" stroke-width="1.5" stroke-linejoin="round"/>
<path d="M24.5005 22.4366L19.1894 27.9039V32.434H22.9384V27.9039H26.2188V32.434H30.124V27.9039L24.5005 22.4366Z" fill="#165ABE"/>
<path fill-rule="evenodd" clip-rule="evenodd" d="M23.2605 20.2492L23.2508 20.2395L24.4995 19L24.5 19.0005L24.5005 19L25.7492 20.2395L25.7395 20.2492L33 27.5634L31.7513 28.8029L24.5 21.4979L17.2487 28.8029L16 27.5635L23.2605 20.2492Z" fill="#2E71D4"/>
<path d="M27.6247 20.2497H29.4992V23.2176L27.6247 21.3431V20.2497Z" fill="#2E71D4"/>
</svg>
