<svg width="48" height="48" viewBox="0 0 48 48" fill="none" xmlns="http://www.w3.org/2000/svg">
<circle cx="24" cy="24" r="24" fill="#8ECAD7"/>
<circle cx="24" cy="24" r="24" fill="#5EFFE2" fill-opacity="0.42"/>
<path fill-rule="evenodd" clip-rule="evenodd" d="M12.4054 11C11.6292 11 11 11.6292 11 12.4054L11 19.0563C11 20.3202 12.5384 20.9418 13.4164 20.0326L15.2382 18.1461C15.3258 18.2744 15.4279 18.3956 15.5447 18.5073L18.0594 20.9133C18.9628 21.7777 20.396 21.7461 21.2605 20.8426C22.1249 19.9391 22.0932 18.5059 21.1898 17.6415L18.6751 15.2355C18.5636 15.1288 18.4441 15.0358 18.3185 14.9564L19.8392 13.3817C20.7008 12.4895 20.0686 11 18.8283 11L12.4054 11Z" fill="#2E71D4"/>
<mask id="mask0" mask-type="alpha" maskUnits="userSpaceOnUse" x="11" y="11" width="11" height="11">
<path fill-rule="evenodd" clip-rule="evenodd" d="M12.4054 11C11.6292 11 11 11.6292 11 12.4054L11 19.0563C11 20.3202 12.5384 20.9418 13.4164 20.0326L15.2382 18.1461C15.3258 18.2744 15.4279 18.3956 15.5447 18.5073L18.0594 20.9133C18.9628 21.7777 20.396 21.7461 21.2605 20.8426C22.1249 19.9391 22.0932 18.5059 21.1898 17.6415L18.6751 15.2355C18.5636 15.1288 18.4441 15.0358 18.3185 14.9564L19.8392 13.3817C20.7008 12.4895 20.0686 11 18.8283 11L12.4054 11Z" fill="#2E71D4"/>
</mask>
<g mask="url(#mask0)">
<path d="M23.0486 22.3666L11.2273 11H10.7727V21.9119L23.0486 22.3666Z" fill="#165ABE"/>
</g>
<path fill-rule="evenodd" clip-rule="evenodd" d="M35.9418 11C36.718 11 37.3472 11.6292 37.3472 12.4054L37.3472 19.0563C37.3472 20.3202 35.8088 20.9418 34.9308 20.0326L33.109 18.1461C33.0214 18.2744 32.9192 18.3956 32.8025 18.5073L30.2878 20.9133C29.3843 21.7777 27.9511 21.7461 27.0867 20.8426C26.2223 19.9391 26.2539 18.5059 27.1574 17.6415L29.6721 15.2355C29.7836 15.1288 29.9031 15.0358 30.0287 14.9564L28.508 13.3817C27.6464 12.4895 28.2786 11 29.5189 11L35.9418 11Z" fill="#2E71D4"/>
<mask id="mask1" mask-type="alpha" maskUnits="userSpaceOnUse" x="26" y="11" width="12" height="11">
<path fill-rule="evenodd" clip-rule="evenodd" d="M35.9418 11C36.718 11 37.3472 11.6292 37.3472 12.4054L37.3472 19.0563C37.3472 20.3202 35.8088 20.9418 34.9308 20.0326L33.109 18.1461C33.0214 18.2744 32.9192 18.3956 32.8025 18.5073L30.2878 20.9133C29.3843 21.7777 27.9511 21.7461 27.0867 20.8426C26.2223 19.9391 26.2539 18.5059 27.1574 17.6415L29.6721 15.2355C29.7836 15.1288 29.9031 15.0358 30.0287 14.9564L28.508 13.3817C27.6464 12.4895 28.2786 11 29.5189 11L35.9418 11Z" fill="#2E71D4"/>
</mask>
<g mask="url(#mask1)">
<path d="M25.2986 22.3666L37.1198 11H37.5745V21.9119L25.2986 22.3666Z" fill="#165ABE"/>
</g>
<path fill-rule="evenodd" clip-rule="evenodd" d="M12.4054 37C11.6292 37 11 36.3708 11 35.5946L11 28.9437C11 27.6798 12.5384 27.0582 13.4164 27.9674L15.2382 29.8539C15.3258 29.7256 15.4279 29.6044 15.5447 29.4927L18.0594 27.0867C18.9628 26.2223 20.396 26.2539 21.2605 27.1574C22.1249 28.0609 22.0932 29.4941 21.1898 30.3585L18.6751 32.7645C18.5636 32.8712 18.4441 32.9642 18.3185 33.0436L19.8392 34.6183C20.7008 35.5105 20.0686 37 18.8283 37L12.4054 37Z" fill="#2E71D4"/>
<mask id="mask2" mask-type="alpha" maskUnits="userSpaceOnUse" x="11" y="26" width="11" height="11">
<path fill-rule="evenodd" clip-rule="evenodd" d="M12.4054 37C11.6292 37 11 36.3708 11 35.5946L11 28.9437C11 27.6798 12.5384 27.0582 13.4164 27.9674L15.2382 29.8539C15.3258 29.7256 15.4279 29.6044 15.5447 29.4927L18.0594 27.0867C18.9628 26.2223 20.396 26.2539 21.2605 27.1574C22.1249 28.0609 22.0932 29.4941 21.1898 30.3585L18.6751 32.7645C18.5636 32.8712 18.4441 32.9642 18.3185 33.0436L19.8392 34.6183C20.7008 35.5105 20.0686 37 18.8283 37L12.4054 37Z" fill="#2E71D4"/>
</mask>
<g mask="url(#mask2)">
<path d="M23.0486 25.6334L11.2273 37H10.7727V26.0881L23.0486 25.6334Z" fill="#165ABE"/>
</g>
<path fill-rule="evenodd" clip-rule="evenodd" d="M35.9418 37C36.718 37 37.3472 36.3708 37.3472 35.5946L37.3472 28.9437C37.3472 27.6798 35.8088 27.0582 34.9308 27.9674L33.109 29.8539C33.0214 29.7256 32.9192 29.6044 32.8025 29.4927L30.2878 27.0867C29.3843 26.2223 27.9511 26.2539 27.0867 27.1574C26.2223 28.0609 26.2539 29.4941 27.1574 30.3585L29.6721 32.7645C29.7836 32.8712 29.9031 32.9642 30.0287 33.0436L28.508 34.6183C27.6464 35.5105 28.2786 37 29.5189 37L35.9418 37Z" fill="#2E71D4"/>
<mask id="mask3" mask-type="alpha" maskUnits="userSpaceOnUse" x="26" y="26" width="12" height="11">
<path fill-rule="evenodd" clip-rule="evenodd" d="M35.9418 37C36.718 37 37.3472 36.3708 37.3472 35.5946L37.3472 28.9437C37.3472 27.6798 35.8088 27.0582 34.9308 27.9674L33.109 29.8539C33.0214 29.7256 32.9192 29.6044 32.8025 29.4927L30.2878 27.0867C29.3843 26.2223 27.9511 26.2539 27.0867 27.1574C26.2223 28.0609 26.2539 29.4941 27.1574 30.3585L29.6721 32.7645C29.7836 32.8712 29.9031 32.9642 30.0287 33.0436L28.508 34.6183C27.6464 35.5105 28.2786 37 29.5189 37L35.9418 37Z" fill="#2E71D4"/>
</mask>
<g mask="url(#mask3)">
<path d="M25.2986 25.6334L37.1198 37H37.5745V26.0881L25.2986 25.6334Z" fill="#165ABE"/>
</g>
</svg>
