<svg width="48" height="48" viewBox="0 0 48 48" fill="none" xmlns="http://www.w3.org/2000/svg">
<circle cx="24" cy="24" r="24" fill="#8ECAD7"/>
<ellipse cx="27.3704" cy="16.1735" rx="8.32407" ry="8.19533" fill="white" fill-opacity="0.72" stroke="black" stroke-opacity="0.15" stroke-width="1.87229" stroke-miterlimit="5.75877"/>
<path fill-rule="evenodd" clip-rule="evenodd" d="M32.5826 13.8685C32.5748 13.7391 32.5598 13.6093 32.5374 13.4793C32.1165 11.0318 29.2448 9.46083 26.1233 9.97045C23.0018 10.4801 20.8125 12.8773 21.2335 15.3248C21.255 15.45 21.2829 15.5728 21.317 15.6932C21.1764 13.3856 23.2962 11.2106 26.252 10.728C29.2139 10.2445 31.9509 11.6341 32.5826 13.8685Z" fill="#CBC8C8"/>
<path d="M19.6067 25.5236L21.4708 23.0265L24.7366 24.9179L22.8876 27.5216L19.6067 25.5236Z" fill="#D4E6E9"/>
<mask id="path-5-inside-1" fill="white">
<path fill-rule="evenodd" clip-rule="evenodd" d="M27.6667 26.347C33.3736 26.347 38 21.7922 38 16.1735C38 10.5548 33.3736 6 27.6667 6C21.9597 6 17.3333 10.5548 17.3333 16.1735C17.3333 21.7922 21.9597 26.347 27.6667 26.347ZM27.5093 24.2425C32.1065 24.2425 35.8333 20.5733 35.8333 16.0472C35.8333 11.521 32.1065 7.85185 27.5093 7.85185C22.912 7.85185 19.1852 11.521 19.1852 16.0472C19.1852 20.5733 22.912 24.2425 27.5093 24.2425Z"/>
</mask>
<path fill-rule="evenodd" clip-rule="evenodd" d="M27.6667 26.347C33.3736 26.347 38 21.7922 38 16.1735C38 10.5548 33.3736 6 27.6667 6C21.9597 6 17.3333 10.5548 17.3333 16.1735C17.3333 21.7922 21.9597 26.347 27.6667 26.347ZM27.5093 24.2425C32.1065 24.2425 35.8333 20.5733 35.8333 16.0472C35.8333 11.521 32.1065 7.85185 27.5093 7.85185C22.912 7.85185 19.1852 11.521 19.1852 16.0472C19.1852 20.5733 22.912 24.2425 27.5093 24.2425Z" fill="#363C42"/>
<path d="M37.0639 16.1735C37.0639 21.2615 32.8704 25.4109 27.6667 25.4109V27.2832C33.8768 27.2832 38.9362 22.3229 38.9362 16.1735H37.0639ZM27.6667 6.93614C32.8704 6.93614 37.0639 11.0856 37.0639 16.1735H38.9362C38.9362 10.0241 33.8768 5.06386 27.6667 5.06386V6.93614ZM18.2695 16.1735C18.2695 11.0856 22.4629 6.93614 27.6667 6.93614V5.06386C21.4565 5.06386 16.3972 10.0241 16.3972 16.1735H18.2695ZM27.6667 25.4109C22.4629 25.4109 18.2695 21.2615 18.2695 16.1735H16.3972C16.3972 22.3229 21.4565 27.2832 27.6667 27.2832V25.4109ZM34.8972 16.0472C34.8972 20.0426 31.6033 23.3064 27.5093 23.3064V25.1786C32.6097 25.1786 36.7695 21.104 36.7695 16.0472H34.8972ZM27.5093 8.78799C31.6033 8.78799 34.8972 12.0517 34.8972 16.0472H36.7695C36.7695 10.9903 32.6097 6.91571 27.5093 6.91571V8.78799ZM20.1213 16.0472C20.1213 12.0517 23.4152 8.78799 27.5093 8.78799V6.91571C22.4088 6.91571 18.249 10.9903 18.249 16.0472H20.1213ZM27.5093 23.3064C23.4152 23.3064 20.1213 20.0426 20.1213 16.0472H18.249C18.249 21.104 22.4088 25.1786 27.5093 25.1786V23.3064Z" fill="#50555A" mask="url(#path-5-inside-1)"/>
<path d="M21.8278 25.7818L11.7815 38.9226C11.4945 38.64 10.863 37.9052 10.6334 37.227C10.4038 36.5488 10.6334 35.9553 10.9204 35.5314C11.2075 35.1075 12.3556 34.2597 12.9297 33.6945C13.5038 33.1293 14.2214 32.2815 14.6519 31.7164C15.0825 31.1512 15.6566 30.4447 16.2306 29.5969C16.8047 28.7491 17.307 28.0426 17.6658 27.3361C18.0246 26.6296 18.2054 26.186 18.3834 25.9231C18.6704 25.4992 19.388 25.2166 19.8186 25.2166C20.3927 25.2166 21.1103 25.2166 21.8278 25.7818Z" fill="#2E71D5"/>
<path d="M21.8278 25.7818L11.7815 38.9226C12.1369 39.1159 13.0846 39.6692 13.8102 39.6986C14.5357 39.7279 15.0513 39.3463 15.3855 38.9574C15.7197 38.5684 16.2291 37.2474 16.6217 36.5478C17.0143 35.8482 17.643 34.9345 18.0754 34.3706C18.5077 33.8068 19.0382 33.068 19.7066 32.2901C20.3751 31.5122 20.9254 30.8413 21.5156 30.3062C22.1057 29.7711 22.4886 29.4772 22.6959 29.236C23.0301 28.847 23.1071 28.0899 22.9879 27.6826C22.8289 27.1395 22.5782 26.3041 21.8278 25.7818Z" fill="#165ABE"/>
<path d="M26.5926 8.77777V11.5555" stroke="#2E71D4" stroke-width="0.936143" stroke-linejoin="round"/>
<path d="M34.9259 16.1852H32.1482" stroke="#2E71D4" stroke-width="0.936143" stroke-linejoin="round"/>
<path d="M26.5926 20.8148V23.5926" stroke="#2E71D4" stroke-width="0.936143" stroke-linejoin="round"/>
<path d="M22.8889 16.1852H20.1111" stroke="#2E71D4" stroke-width="0.936143" stroke-linejoin="round"/>
<circle cx="27.0555" cy="15.7222" r="1.38889" fill="#2E71D4"/>
</svg>
