<svg width="48" height="48" viewBox="0 0 48 48" fill="none" xmlns="http://www.w3.org/2000/svg">
<circle cx="24" cy="24" r="24" fill="#8ECAD7"/>
<circle cx="24" cy="24" r="24" fill="#5EFFE2" fill-opacity="0.42"/>
<ellipse cx="29.56" cy="16.2785" rx="8.41" ry="8.27992" fill="white" fill-opacity="0.72" stroke="black" stroke-opacity="0.15" stroke-width="1.87097" stroke-miterlimit="5.75877"/>
<path fill-rule="evenodd" clip-rule="evenodd" d="M34.8257 13.9483C34.8177 13.8179 34.8026 13.6871 34.78 13.5562C34.3548 11.0834 31.4534 9.49625 28.2997 10.0111C25.146 10.526 22.9342 12.948 23.3594 15.4208C23.3813 15.5477 23.4096 15.6723 23.4442 15.7944C23.3014 13.4625 25.4433 11.2644 28.4301 10.7768C31.4219 10.2884 34.1866 11.6917 34.8257 13.9483Z" fill="#CBC8C8"/>
<path d="M21.7162 25.7251L23.5995 23.2023L26.8991 25.1132L25.031 27.7438L21.7162 25.7251Z" fill="#D4E6E9"/>
<mask id="path-5-inside-1" fill="white">
<path fill-rule="evenodd" clip-rule="evenodd" d="M29.56 26.557C35.3258 26.557 40 21.9552 40 16.2785C40 10.6019 35.3258 6 29.56 6C23.7941 6 19.12 10.6019 19.12 16.2785C19.12 21.9552 23.7941 26.557 29.56 26.557ZM29.56 24.5585C34.2047 24.5585 37.97 20.8514 37.97 16.2785C37.97 11.7057 34.2047 7.99861 29.56 7.99861C24.9153 7.99861 21.15 11.7057 21.15 16.2785C21.15 20.8514 24.9153 24.5585 29.56 24.5585Z"/>
</mask>
<path fill-rule="evenodd" clip-rule="evenodd" d="M29.56 26.557C35.3258 26.557 40 21.9552 40 16.2785C40 10.6019 35.3258 6 29.56 6C23.7941 6 19.12 10.6019 19.12 16.2785C19.12 21.9552 23.7941 26.557 29.56 26.557ZM29.56 24.5585C34.2047 24.5585 37.97 20.8514 37.97 16.2785C37.97 11.7057 34.2047 7.99861 29.56 7.99861C24.9153 7.99861 21.15 11.7057 21.15 16.2785C21.15 20.8514 24.9153 24.5585 29.56 24.5585Z" fill="#363C42"/>
<path d="M39.0638 16.2785C39.0638 21.4245 34.8226 25.6209 29.56 25.6209V27.4932C35.8291 27.4932 40.9361 22.4859 40.9361 16.2785H39.0638ZM29.56 6.93614C34.8226 6.93614 39.0638 11.1326 39.0638 16.2785H40.9361C40.9361 10.0711 35.8291 5.06386 29.56 5.06386V6.93614ZM20.0561 16.2785C20.0561 11.1326 24.2973 6.93614 29.56 6.93614V5.06386C23.2909 5.06386 18.1839 10.0711 18.1839 16.2785H20.0561ZM29.56 25.6209C24.2973 25.6209 20.0561 21.4245 20.0561 16.2785H18.1839C18.1839 22.4859 23.2909 27.4932 29.56 27.4932V25.6209ZM37.0338 16.2785C37.0338 20.3207 33.7015 23.6223 29.56 23.6223V25.4946C34.7079 25.4946 38.9061 21.3821 38.9061 16.2785H37.0338ZM29.56 8.93475C33.7015 8.93475 37.0338 12.2364 37.0338 16.2785H38.9061C38.9061 11.1749 34.7079 7.06247 29.56 7.06247V8.93475ZM22.0861 16.2785C22.0861 12.2364 25.4185 8.93475 29.56 8.93475V7.06247C24.4121 7.06247 20.2138 11.1749 20.2138 16.2785H22.0861ZM29.56 23.6223C25.4185 23.6223 22.0861 20.3207 22.0861 16.2785H20.2138C20.2138 21.3821 24.4121 25.4946 29.56 25.4946V23.6223Z" fill="#50555A" mask="url(#path-5-inside-1)"/>
<path d="M23.9602 25.986L13.8102 39.2624C13.5202 38.9769 12.8822 38.2346 12.6502 37.5494C12.4182 36.8641 12.6502 36.2645 12.9402 35.8363C13.2302 35.408 14.3902 34.5515 14.9702 33.9804C15.5502 33.4094 16.2752 32.5529 16.7102 31.9818C17.1452 31.4108 17.7252 30.697 18.3052 29.8405C18.8852 28.9839 19.3927 28.2701 19.7552 27.5564C20.1177 26.8426 20.3004 26.3944 20.4802 26.1288C20.7702 25.7005 21.4952 25.415 21.9302 25.415C22.5102 25.415 23.2352 25.415 23.9602 25.986Z" fill="#2E71D5"/>
<path d="M23.9603 25.986L13.8103 39.2624C14.1692 39.4577 15.1268 40.0167 15.8598 40.0464C16.5929 40.0761 17.1138 39.6905 17.4514 39.2976C17.7891 38.9046 18.3038 37.57 18.7004 36.8631C19.0971 36.1563 19.7322 35.2332 20.169 34.6635C20.6059 34.0938 21.1418 33.3474 21.8172 32.5615C22.4925 31.7756 23.0485 31.0978 23.6448 30.5571C24.241 30.0165 24.6278 29.7196 24.8372 29.4758C25.1749 29.0829 25.2527 28.3179 25.1322 27.9064C24.9716 27.3577 24.7184 26.5137 23.9603 25.986Z" fill="#165ABE"/>
<path fill-rule="evenodd" clip-rule="evenodd" d="M28.91 15.7961V13.1838L29.905 13.1838L29.905 15.7961H32.89V16.7757H29.905L29.905 19.7145H28.91V16.7757H26.2567V15.7961H28.91Z" fill="#2E71D4"/>
</svg>
