<svg width="48" height="48" viewBox="0 0 48 48" fill="none" xmlns="http://www.w3.org/2000/svg">
<circle cx="24" cy="24" r="24" fill="#8ECAD7"/>
<circle cx="24" cy="24" r="24" fill="#5EFFE2" fill-opacity="0.42"/>
<ellipse cx="28.56" cy="16.2785" rx="8.41" ry="8.27992" fill="white" fill-opacity="0.72" stroke="black" stroke-opacity="0.15" stroke-width="1.87097" stroke-miterlimit="5.75877"/>
<path fill-rule="evenodd" clip-rule="evenodd" d="M33.8257 13.9482C33.8177 13.8179 33.8026 13.6871 33.78 13.5562C33.3548 11.0834 30.4534 9.49625 27.2997 10.0111C24.146 10.526 21.9342 12.948 22.3594 15.4208C22.3813 15.5477 22.4096 15.6723 22.4442 15.7944C22.3014 13.4626 24.4433 11.2644 27.4301 10.7768C30.4219 10.2884 33.1866 11.6917 33.8257 13.9482Z" fill="#CBC8C8"/>
<path d="M20.7162 25.7251L22.5995 23.2023L25.8991 25.1132L24.031 27.7438L20.7162 25.7251Z" fill="#D4E6E9"/>
<mask id="path-5-inside-1" fill="white">
<path fill-rule="evenodd" clip-rule="evenodd" d="M28.56 26.557C34.3258 26.557 39 21.9552 39 16.2785C39 10.6019 34.3258 6 28.56 6C22.7941 6 18.12 10.6019 18.12 16.2785C18.12 21.9552 22.7941 26.557 28.56 26.557ZM28.56 24.5585C33.2047 24.5585 36.97 20.8514 36.97 16.2785C36.97 11.7057 33.2047 7.99861 28.56 7.99861C23.9153 7.99861 20.15 11.7057 20.15 16.2785C20.15 20.8514 23.9153 24.5585 28.56 24.5585Z"/>
</mask>
<path fill-rule="evenodd" clip-rule="evenodd" d="M28.56 26.557C34.3258 26.557 39 21.9552 39 16.2785C39 10.6019 34.3258 6 28.56 6C22.7941 6 18.12 10.6019 18.12 16.2785C18.12 21.9552 22.7941 26.557 28.56 26.557ZM28.56 24.5585C33.2047 24.5585 36.97 20.8514 36.97 16.2785C36.97 11.7057 33.2047 7.99861 28.56 7.99861C23.9153 7.99861 20.15 11.7057 20.15 16.2785C20.15 20.8514 23.9153 24.5585 28.56 24.5585Z" fill="#363C42"/>
<path d="M38.0638 16.2785C38.0638 21.4245 33.8226 25.6209 28.56 25.6209V27.4932C34.8291 27.4932 39.9361 22.4859 39.9361 16.2785H38.0638ZM28.56 6.93614C33.8226 6.93614 38.0638 11.1326 38.0638 16.2785H39.9361C39.9361 10.0711 34.8291 5.06386 28.56 5.06386V6.93614ZM19.0561 16.2785C19.0561 11.1326 23.2973 6.93614 28.56 6.93614V5.06386C22.2909 5.06386 17.1839 10.0711 17.1839 16.2785H19.0561ZM28.56 25.6209C23.2973 25.6209 19.0561 21.4245 19.0561 16.2785H17.1839C17.1839 22.4859 22.2909 27.4932 28.56 27.4932V25.6209ZM36.0338 16.2785C36.0338 20.3207 32.7015 23.6223 28.56 23.6223V25.4946C33.7079 25.4946 37.9061 21.3821 37.9061 16.2785H36.0338ZM28.56 8.93475C32.7015 8.93475 36.0338 12.2364 36.0338 16.2785H37.9061C37.9061 11.1749 33.7079 7.06247 28.56 7.06247V8.93475ZM21.0861 16.2785C21.0861 12.2364 24.4185 8.93475 28.56 8.93475V7.06247C23.4121 7.06247 19.2138 11.1749 19.2138 16.2785H21.0861ZM28.56 23.6223C24.4185 23.6223 21.0861 20.3207 21.0861 16.2785H19.2138C19.2138 21.3821 23.4121 25.4946 28.56 25.4946V23.6223Z" fill="#50555A" mask="url(#path-5-inside-1)"/>
<path d="M22.9603 25.986L12.8103 39.2624C12.5203 38.9769 11.8823 38.2346 11.6503 37.5494C11.4183 36.8641 11.6503 36.2645 11.9403 35.8363C12.2303 35.408 13.3903 34.5515 13.9703 33.9804C14.5503 33.4094 15.2753 32.5529 15.7103 31.9818C16.1453 31.4108 16.7253 30.697 17.3053 29.8405C17.8853 28.9839 18.3928 28.2701 18.7553 27.5564C19.1178 26.8426 19.3004 26.3944 19.4803 26.1288C19.7703 25.7005 20.4953 25.415 20.9303 25.415C21.5103 25.415 22.2353 25.415 22.9603 25.986Z" fill="#2E71D5"/>
<path d="M22.9603 25.986L12.8103 39.2624C13.1692 39.4577 14.1268 40.0167 14.8598 40.0464C15.5929 40.0761 16.1138 39.6905 16.4514 39.2976C16.7891 38.9046 17.3038 37.57 17.7004 36.8631C18.0971 36.1563 18.7322 35.2332 19.169 34.6635C19.6059 34.0938 20.1418 33.3474 20.8172 32.5615C21.4925 31.7756 22.0485 31.0978 22.6448 30.5571C23.241 30.0165 23.6278 29.7196 23.8372 29.4758C24.1749 29.0829 24.2527 28.3179 24.1322 27.9064C23.9716 27.3577 23.7184 26.5137 22.9603 25.986Z" fill="#165ABE"/>
<path d="M25.4355 16.7581V15.8226H31.5161V16.7581H25.4355Z" fill="#2E71D4"/>
</svg>
