<?xml version="1.0" encoding="utf-8"?>
<!-- Generator: Adobe Illustrator 22.1.0, SVG Export Plug-In . SVG Version: 6.00 Build 0)  -->
<svg version="1.1" id="_x31_" xmlns="http://www.w3.org/2000/svg" xmlns:xlink="http://www.w3.org/1999/xlink" x="0px" y="0px"
	 viewBox="0 0 512 512" style="enable-background:new 0 0 512 512;" xml:space="preserve">
<style type="text/css">
	.st0{display:none;fill:#F6B597;}
	.st1{opacity:0.1;fill:#231815;enable-background:new    ;}
	.st2{fill:#FFFFFF;}
	.st3{fill:#3498CB;}
	.st4{fill:#ADDCE1;}
	.st5{fill:#1A2D75;}
	.st6{opacity:6.000000e-02;}
	.st7{fill:#231815;}
</style>
<g>
	<rect class="st0" width="512" height="512"/>
	<polygon class="st1" points="512,313.1 512,512 314,512 139.9,338.1 338.5,139.5 	"/>
	<g>
		<path class="st2" d="M403.1,256c0,81.2-65.8,147.1-147.1,147.1c-81.2,0-147.1-65.9-147.1-147.1S174.8,108.9,256,108.9
			C337.2,108.9,403.1,174.8,403.1,256z"/>
		<path class="st3" d="M333.4,256c0,42.8-34.6,77.4-77.4,77.4s-77.4-34.7-77.4-77.4c0-8.4,1.3-16.5,3.8-24.1
			c1.9-5.9,4.6-11.6,7.8-16.8c13.6-21.9,38-36.6,65.8-36.6C298.8,178.6,333.4,213.2,333.4,256z"/>
		<polygon class="st4" points="256,256 265.6,267.9 269.9,270 267.3,264.1 		"/>
		<polygon class="st4" points="269.9,270 287.4,278.5 267.3,264.1 		"/>
		<polygon class="st4" points="273.1,277.1 269.9,270 265.6,267.9 		"/>
		<path class="st4" d="M267.3,264.1L231,182.7c-8.7,3-16.8,7.5-23.8,13.1L256,256L267.3,264.1z"/>
		<path class="st4" d="M258.4,268.9l-76-37c1.9-5.9,4.6-11.6,7.8-16.8l58.5,41.9L258.4,268.9z"/>
		<path class="st5" d="M296.4,256c0,22.3-18.1,40.4-40.4,40.4c-22.3,0-40.4-18.1-40.4-40.4c0-22.3,18.1-40.4,40.4-40.4
			C278.3,215.6,296.4,233.7,296.4,256z"/>
		<g class="st6">
			<path class="st7" d="M152.5,360.5c26.6,26.3,63.1,42.6,103.5,42.6c81.2,0,147.1-65.9,147.1-147.1c0-40.4-16.3-77-42.6-103.5
				L152.5,360.5z"/>
		</g>
	</g>
</g>
</svg>
