<?xml version="1.0" encoding="utf-8"?>
<!-- Generator: Adobe Illustrator 22.1.0, SVG Export Plug-In . SVG Version: 6.00 Build 0)  -->
<svg version="1.1" id="_x32_" xmlns="http://www.w3.org/2000/svg" xmlns:xlink="http://www.w3.org/1999/xlink" x="0px" y="0px"
	 viewBox="0 0 512 512" style="enable-background:new 0 0 512 512;" xml:space="preserve">
<style type="text/css">
	.st0{display:none;fill:#E67A85;}
	.st1{opacity:0.1;fill:#040000;enable-background:new    ;}
	.st2{fill:#2D2D33;}
	.st3{fill:#1E1F21;}
	.st4{fill:#121313;}
	.st5{opacity:0.3;fill:#F4F4F5;enable-background:new    ;}
	.st6{fill:url(#SVGID_1_);}
	.st7{opacity:0.2;fill:#F4F4F5;enable-background:new    ;}
	.st8{opacity:0.4;}
	.st9{fill:#F4F4F5;}
	.st10{opacity:0.1;fill:#F4F4F5;enable-background:new    ;}
</style>
<g>
	<rect class="st0" width="512" height="512"/>
	<path class="st1" d="M512,246v266H246.3l-85.8-85.8c-0.2-1-0.3-2-0.3-3V118.8l46.2-46.2h129.2c1.1,0,2.2,0.1,3.3,0.4l12.5,12.5
		c0,0.1,0,0.1,0,0.1L512,246z"/>
	<g>
		<path class="st2" d="M351.8,88.8v334.4c0,8.9-7.3,16.2-16.2,16.2H176.4c-1,0-2-0.1-3-0.3c-6.5-1.2-11.7-6.4-12.9-12.9
			c-0.2-1-0.3-2-0.3-3V88.8c0-8.9,7.3-16.2,16.2-16.2h159.2c1.1,0,2.2,0.1,3.3,0.4c6.2,1.3,11.3,6.3,12.5,12.5c0,0.1,0,0.1,0,0.1
			C351.7,86.6,351.8,87.7,351.8,88.8z"/>
		<path class="st3" d="M280.6,103.2h-49.3c-2,0-3.7-1.7-3.7-3.7l0,0c0-2,1.7-3.7,3.7-3.7h49.3c2,0,3.7,1.7,3.7,3.7l0,0
			C284.3,101.5,282.7,103.2,280.6,103.2z"/>
		<path class="st4" d="M284.2,98c-0.6-0.5-1.4-0.8-2.3-0.8h-49.5c-2,0-3.6,1.6-3.6,3.6v0.2c0,0.5,0.1,0.9,0.3,1.4
			c-0.8-0.7-1.4-1.7-1.4-2.8v-0.2c0-2,1.6-3.6,3.6-3.6h49.5C282.4,95.8,283.7,96.7,284.2,98z"/>
		<circle class="st3" cx="256" cy="412" r="14.7"/>
		<path class="st4" d="M268.9,402.9c-2.4-1.9-5.5-3.1-8.9-3.1c-8,0-14.4,6.5-14.4,14.4c0,3.3,1.1,6.4,3,8.9
			c-3.4-2.6-5.6-6.7-5.6-11.4c0-8,6.5-14.4,14.4-14.4C262.1,397.3,266.3,399.5,268.9,402.9z"/>
		<polygon class="st5" points="172.7,119.9 172.7,345.6 172.7,345.9 172.7,383.9 339.3,383.9 339.3,345.9 339.3,345.6 339.3,119.9 
					"/>
		<g>
			
				<linearGradient id="SVGID_1_" gradientUnits="userSpaceOnUse" x1="256" y1="128.149" x2="256" y2="392.123" gradientTransform="matrix(1 0 0 -1 0 512)">
				<stop  offset="0.1304" style="stop-color:#EBB2BF"/>
				<stop  offset="1" style="stop-color:#EBB2BF"/>
			</linearGradient>
			<rect x="172.7" y="119.9" class="st6" width="166.6" height="264"/>
			<rect x="172.7" y="345.9" class="st7" width="166.6" height="37.9"/>
			<rect x="172.7" y="345.6" class="st7" width="166.6" height="0.4"/>
			<rect x="172.7" y="345.6" class="st7" width="166.6" height="0.4"/>
			<g class="st8">
				<rect x="196" y="164" class="st9" width="123" height="56"/>
				<polygon class="st9" points="251.9,236 196,236 196,230 266.3,230 				"/>
				<polygon class="st9" points="268.5,148 226,148 226,143 282.8,143 				"/>
				<polygon class="st9" points="307.9,256 196,256 196,251 322.3,251 				"/>
				<polygon class="st9" points="307.9,276 196,276 196,266 322.3,266 				"/>
				<polygon class="st9" points="307.9,292 196,292 196,287 322.3,287 				"/>
				<polygon class="st9" points="307.9,312 196,312 196,307 322.3,307 				"/>
				<polygon class="st9" points="292.1,328 196,328 196,323 306.5,323 				"/>
				<path class="st9" d="M205.5,133.2l10.4,9.7c0.6,0.6,0.6,1.6,0,2.1l-10.4,9.7c-0.6,0.5-1.4,0.5-2,0l-10.4-9.7
					c-0.6-0.6-0.6-1.6,0-2.1l10.4-9.7C204,132.7,204.9,132.7,205.5,133.2z"/>
				<g>
					<polygon class="st9" points="305,128.6 307.5,131 305,133.3 302.5,131 					"/>
					<polygon class="st9" points="313.2,128.6 315.7,131 313.2,133.3 310.6,131 					"/>
					<polygon class="st9" points="296.9,128.6 299.4,131 296.9,133.3 294.4,131 					"/>
				</g>
			</g>
			<g>
				<path class="st5" d="M194,379.2L194,379.2c-7.4,0-13.5-6.1-13.5-13.5l0,0c0-7.4,6.1-13.5,13.5-13.5l0,0
					c7.4,0,13.5,6.1,13.5,13.5l0,0C207.5,373.1,201.4,379.2,194,379.2z"/>
				<path class="st5" d="M235.3,379.2L235.3,379.2c-7.4,0-13.5-6.1-13.5-13.5l0,0c0-7.4,6.1-13.5,13.5-13.5l0,0
					c7.4,0,13.5,6.1,13.5,13.5l0,0C248.8,373.1,242.7,379.2,235.3,379.2z"/>
				<path class="st5" d="M276.7,379.2L276.7,379.2c-7.4,0-13.5-6.1-13.5-13.5l0,0c0-7.4,6.1-13.5,13.5-13.5l0,0
					c7.4,0,13.5,6.1,13.5,13.5l0,0C290.1,373.1,284.1,379.2,276.7,379.2z"/>
				<path class="st5" d="M318,379.2L318,379.2c-7.4,0-13.5-6.1-13.5-13.5l0,0c0-7.4,6.1-13.5,13.5-13.5l0,0
					c7.4,0,13.5,6.1,13.5,13.5l0,0C331.5,373.1,325.4,379.2,318,379.2z"/>
			</g>
		</g>
	</g>
	<path class="st10" d="M159.9,85.5C159.9,85.5,159.9,85.5,159.9,85.5c1.3-6.3,6.3-11.3,12.5-12.6c1.1-0.3,2.1-0.4,3.3-0.4h79.6
		v366.9h-79.6c-8.9,0-16.2-7.3-16.2-16.2V88.8C159.6,87.7,159.7,86.6,159.9,85.5z"/>
</g>
</svg>
