<?xml version="1.0" encoding="UTF-8"?>
<svg width="512px" height="512px" viewBox="0 0 512 512" version="1.1" xmlns="http://www.w3.org/2000/svg" xmlns:xlink="http://www.w3.org/1999/xlink">
    <!-- Generator: Sketch 52.5 (67469) - http://www.bohemiancoding.com/sketch -->
    <title>breaky</title>
    <desc>Created with Sketch.</desc>
    <g id="breaky" stroke="none" stroke-width="1" fill="none" fill-rule="evenodd">
        <g id="群組-6" fill-rule="nonzero">
            <rect id="Mask" fill="#F2B890" x="0" y="0" width="512" height="512" rx="12"></rect>
            <g id="群組" transform="translate(59.000000, 76.000000)">
                <path d="M0,119.556604 C0,69.5435725 78.3501688,29 175,29 C271.649831,29 350,69.5435725 350,119.556604 C350,140.70842 335.98578,160.166468 312.5,175.580074 L312.5,360 L31.25,360 L31.25,171.216156 C11.5495436,156.564643 0,138.758566 0,119.556604 Z" id="路徑" fill="#F0D3A5"></path>
                <path d="M31.25,171.216156 C11.5495436,156.564643 0,138.758566 0,119.556604 C0,69.5435725 78.3501688,29 175,29 L175,210.113208 L175,128.924528 L31.25,128.924528 L31.25,171.216156 Z M175,360 L31.25,360 L31.25,128.924528 L175,128.924528 L175,360 Z" id="形狀" fill="#FAE1B9"></path>
                <path d="M61.9479752,43.4628506 C43.2031028,61.3015492 80.6928475,35.0666191 124.430883,34.3750734 C168.168919,33.6835277 186.444456,25.2872962 222.110193,34.3750734 C257.775931,43.4628506 311.879607,61.2558257 324.376188,78.7560387 C336.87277,96.2562518 349.369352,114.542661 349.369352,129.820855 C349.369352,145.099049 311.879607,172.416634 311.879607,172.416634 C311.879607,172.416634 311.879607,234.944423 311.879607,360 L349.369352,316.029547 L349.369352,172.416634 C391.024623,145.710665 403.521205,119.647006 386.859096,94.225657 C361.865933,56.093633 324.376188,11.2874113 257.775931,3.82756253 C191.175674,-3.63228621 155.672337,0.319366839 124.430883,11.2874113 C93.1894291,22.2554557 80.6928475,25.6241519 61.9479752,43.4628506 Z" id="路徑-11" fill="#F0CB91"></path>
            </g>
        </g>
    </g>
</svg>