<?xml version="1.0" encoding="UTF-8"?>
<svg width="512px" height="512px" viewBox="0 0 512 512" version="1.1" xmlns="http://www.w3.org/2000/svg" xmlns:xlink="http://www.w3.org/1999/xlink">
    <!-- Generator: Sketch 52.5 (67469) - http://www.bohemiancoding.com/sketch -->
    <title>cake</title>
    <desc>Created with Sketch.</desc>
    <g id="cake" stroke="none" stroke-width="1" fill="none" fill-rule="evenodd">
        <g id="群組-4" fill-rule="nonzero">
            <rect id="Mask" fill="#90E4C3" x="0" y="0" width="512" height="512" rx="12"></rect>
            <g id="群組" transform="translate(50.000000, 72.000000)">
                <path d="M225,364 L225,243 L44,245.108997 C48.6644852,286.634569 52.4614018,310.698809 55.3907498,317.301716 C59.7847718,327.206078 79.1184687,354.272317 90.542926,358.28213 C98.1592308,360.955339 142.978256,362.861296 225,364 Z" id="路徑-10" fill="#FA7978"></path>
                <path d="M0,254.75402 C14.7727505,195.650515 28.1422723,157.625191 40.1085656,140.678049 C58.0580054,115.257335 69.3017956,108.223057 89.5575126,96.1450577 C103.061324,88.0930583 141.875486,86.0110621 206,89.8990691 L206,246.599178 L186.762646,247.784369 L144.280156,261 L86.9178891,247.784369 L24.8867367,259.081314 L0,254.75402 Z" id="路徑-8" fill="#FFDB83"></path>
                <path d="M387,364 L387,243 L206,245.108997 C210.664485,286.634569 214.461402,310.698809 217.39075,317.301716 C221.784772,327.206078 241.118469,354.272317 252.542926,358.28213 C260.159231,360.955339 304.978256,362.861296 387,364 Z" id="路徑-10" fill="#F64958" transform="translate(296.500000, 303.500000) scale(-1, 1) translate(-296.500000, -303.500000) "></path>
                <path d="M206,254.75402 C220.77275,195.650515 234.142272,157.625191 246.108566,140.678049 C264.058005,115.257335 275.301796,108.223057 295.557513,96.1450577 C309.061324,88.0930583 347.875486,86.0110621 412,89.8990691 L412,246.599178 L392.762646,247.784369 L350.280156,261 L292.917889,247.784369 L230.886737,259.081314 L206,254.75402 Z" id="路徑-8" fill="#FFCE44" transform="translate(309.000000, 174.500000) scale(-1, 1) translate(-309.000000, -174.500000) "></path>
                <path d="M149.842838,42.7323361 C152.203797,41.1659419 155.223978,39.5574335 158.903382,37.9068108 C175.405797,30.5036374 200.673819,22.4828361 204.555567,15.955528 C207.143399,11.6039892 210.392993,6.28547989 214.304348,0 C249.986826,14.9885574 271.537291,25.0937594 278.955743,30.3156059 C286.554388,35.6642899 304.745652,55.9303471 315.519757,68.9963107 C325.379278,78.793109 331,90.0893168 331,102.115995 C331,139.607296 276.378739,170 209,170 C141.621261,170 87,139.607296 87,102.115995 C87,76.5683575 112.363093,54.3169153 149.842838,42.7323361 Z" id="路徑" fill="#FFFFFF"></path>
                <path d="M205,15.955528 C207.578736,11.6039892 210.816908,6.28547989 214.714515,0 C250.271574,14.9885574 271.746293,25.0937594 279.138671,30.3156059 C286.710607,35.6642899 304.837932,55.9303471 315.574168,68.9963107 C325.399034,78.793109 331,90.0893168 331,102.115995 C331,139.607296 276.570725,170 209.428811,170" id="路徑" fill="#F4F4F4"></path>
            </g>
        </g>
    </g>
</svg>