<?xml version="1.0" encoding="utf-8"?>
<!-- Generator: Adobe Illustrator 22.1.0, SVG Export Plug-In . SVG Version: 6.00 Build 0)  -->
<svg version="1.1" id="_x33_" xmlns="http://www.w3.org/2000/svg" xmlns:xlink="http://www.w3.org/1999/xlink" x="0px" y="0px"
	 viewBox="0 0 512 512" style="enable-background:new 0 0 512 512;" xml:space="preserve">
<style type="text/css">
	.st0{display:none;fill:#F7BB9D;}
	.st1{opacity:0.1;fill:#040000;enable-background:new    ;}
	.st2{fill:#FDFEFE;}
	.st3{fill:#8CCFD1;}
	.st4{fill:#505E7A;}
	.st5{opacity:0.2;fill:#040000;enable-background:new    ;}
	.st6{fill:#EBE5EF;}
	.st7{opacity:6.000000e-02;fill:#040000;enable-background:new    ;}
</style>
<g>
	<rect class="st0" width="512" height="512"/>
	<path class="st1" d="M512,202.3V512H227.2l-102-102l-16.4-16.4l-14.3-14.3c-1-5.1,0.4-10.3,4.1-14.1l139.1-143.1l6.6-6.7
		c0,0,0,0,0-0.1c0.2-0.7,0.5-1.4,1.1-2l5.2-4.4l0.2-0.2l1.4-1.2l24.7-21l12.6-11.9l2.6-2.4c0.8-0.8,2-0.8,2.8,0l6.5,6.5
		c-1-2.8-1.7-5.7-1.9-8.7c-0.2-2.7-0.2-5.4,0.2-8c0.8-5.2,2.8-10.2,5.4-14.8c3-5.4,7.3-10,11.9-14.2c9.3-8.2,20.4-14.1,31.8-18.6
		c7.7-3,15.3-5.3,22.5-7c4.1-1,8.1-1.9,11.9-2.6c1.9-0.4,3.7-0.7,5.5-0.9c1.6-0.3,3.4-0.5,5.2-0.8c2.2-0.3,4.2-0.6,6.2-0.7l0.1-0.1
		c0.3,0,0.5-0.1,0.8-0.1c0.6-0.1,1.1-0.1,1.6-0.2h0.5c0.5-0.1,1-0.1,1.5-0.1c0.3,0,0.7-0.1,1-0.1c0.3-0.1,0.6-0.1,0.9-0.1h0.5
		c1.1-0.1,2-0.1,2.9-0.1c0.5,0,1,0,1.5,0.1h0.6l5.1,5.1l0.3,0.3L512,202.3z"/>
	<g>
		<g>
			<path class="st2" d="M388.2,169c-0.4,1.5-0.8,3-1.3,4.4c-0.5,1.4-1.2,2.7-1.8,4.1c-0.6,1.4-1.3,2.7-2.1,4
				c-1.5,2.6-3.3,5.1-5.3,7.3v0.1h-0.1c0,0.1,0,0.1,0,0.1c-0.1,0.1-0.1,0.1-0.2,0.2c-0.2,0.2-0.2,0.3-0.2,0.3
				c-0.9,1-1.8,1.9-2.7,2.8c-8.3,8.1-19.7,12.6-31.1,13.1c-0.8,0.1-1.6,0.1-2.4,0.1c-1.4-0.1-2.7-0.1-4-0.3
				c-4.5-0.5-8.8-1.5-12.9-3.3c-4.7-1.8-9-4.5-12.7-7.9c-0.6-0.5-1.1-1-1.6-1.5c-3.8-3.8-6.8-8.5-8.7-13.6c-1-2.8-1.7-5.7-1.9-8.7
				c-0.2-2.7-0.2-5.4,0.2-8c0.8-5.2,2.8-10.2,5.4-14.8c3-5.4,7.3-10,11.9-14.2c9.3-8.2,20.4-14.1,31.8-18.6
				c-0.3,1.7-0.6,3.4-0.8,5.2c-0.4,2.1-0.6,4.2-0.4,6.3c0.1,1.3,0.3,2.6,0.9,3.8c0.5,1.2,1.2,2.3,2,3.3c0.2,0.2,0.4,0.5,0.6,0.7
				c0.9,0.8,1.8,1.5,2.7,1.9c0.9,0.5,1.7,0.8,2.6,0.9c0.2,0.1,0.5,0.2,0.8,0.2c2,0.4,4.1,0.2,6.1-0.2c0.9-0.1,1.7-0.3,2.6-0.5
				c0.3-0.1,0.5-0.1,0.7-0.2c0.9-0.2,1.8-0.4,2.8-0.6c0.7-0.2,1.3-0.3,2-0.4c0.3-0.1,0.6-0.1,0.9-0.2c0.4-0.1,0.8-0.1,1.1-0.1
				c0.7-0.1,1.3-0.1,1.9-0.1c0.4,0,0.8,0,1.2,0.1c0.3,0,0.6,0.1,0.8,0.1c0.9,0.1,1.7,0.3,2.5,0.6c0.5,0.2,1,0.4,1.4,0.7
				c0.8,0.4,1.6,1,2.4,1.7c0.2,0.2,0.5,0.4,0.6,0.7c0.3,0.3,0.5,0.6,0.7,0.8c0.3,0.3,0.5,0.6,0.7,1c0.7,1.1,1.1,2.3,1.3,3.5
				c0.1,0.5,0.2,0.9,0.2,1.4c0.8,7.8-4.5,17,1,23.8v0.1C388,168.8,388.1,168.9,388.2,169z"/>
			<path class="st3" d="M417.9,104.2v0.3c0,0.3-0.1,0.8-0.3,1.3c-0.2,0.5-0.4,0.9-0.7,1.4c0,0.1-0.1,0.1-0.1,0.2
				c-0.2,0.4-0.4,0.7-0.6,1c-0.2,0.2-0.3,0.4-0.4,0.6l-0.2,0.3l-0.2,0.3c-1.1,1.3-2.3,3.3-3.7,5.3c-0.4,0.5-0.8,1-1.1,1.6
				c-0.2,0.3-0.4,0.6-0.6,0.9c-0.2,0.3-0.4,0.6-0.6,0.9c-0.8,1.2-1.6,2.4-2.5,3.8c-0.4,0.7-0.8,1.4-1.3,2.1
				c-0.4,0.7-0.8,1.4-1.3,2.2c-0.4,0.8-0.8,1.5-1.2,2.4c-0.5,0.8-0.9,1.6-1.3,2.4c-0.4,0.8-0.9,1.6-1.3,2.5
				c-0.4,0.9-0.8,1.8-1.2,2.7c-0.9,1.8-1.7,3.7-2.5,5.6c-0.4,1-0.8,1.9-1.2,2.9c-0.4,1-0.8,2-1.1,3.1c-0.4,1.1-0.8,2.1-1.1,3.1
				c-0.4,1.1-0.8,2.1-1.1,3.2c-0.4,1.1-0.7,2.2-1,3.3c-0.2,0.6-0.3,1.1-0.5,1.7c-0.2,0.6-0.4,1.1-0.5,1.6c-0.7,2.3-1.2,4.6-1.8,7
				c-0.2,0.5-0.3,0.9-0.4,1.4c-0.1-0.1-0.2-0.3-0.3-0.4v-0.1c-5.5-6.8-0.2-16-1-23.8c0-0.5-0.1-0.9-0.2-1.4
				c-0.2-1.2-0.6-2.4-1.3-3.5c-0.2-0.3-0.5-0.7-0.7-1c-0.2-0.3-0.4-0.6-0.7-0.8c-0.2-0.3-0.4-0.5-0.6-0.7c-0.8-0.7-1.6-1.3-2.4-1.7
				c-0.5-0.3-1-0.5-1.4-0.7c-0.8-0.3-1.6-0.5-2.5-0.6c-0.3-0.1-0.5-0.1-0.8-0.1c-0.4-0.1-0.8-0.1-1.2-0.1c-0.6,0-1.2,0.1-1.9,0.1
				c-0.7,0.1-1.3,0.2-2,0.3c-0.7,0.2-1.3,0.3-2,0.4c-0.9,0.2-1.8,0.4-2.8,0.6c-0.3,0.1-0.5,0.1-0.7,0.2c-0.9,0.2-1.7,0.4-2.6,0.5
				c-2.1,0.4-4.2,0.5-6.1,0.2c-0.3,0-0.6-0.1-0.8-0.2c-0.9-0.2-1.7-0.5-2.6-0.9c-0.9-0.4-1.8-1.1-2.7-1.9c-0.2-0.2-0.5-0.5-0.6-0.7
				c-1-1-1.6-2.1-2-3.3c-0.6-1.2-0.8-2.6-0.9-3.8c-0.2-2,0.1-4.2,0.4-6.3c0.3-1.7,0.6-3.5,0.8-5.2c7.7-3,15.3-5.3,22.5-7
				c4.1-1,8.1-1.9,11.9-2.6c1.9-0.4,3.7-0.7,5.5-0.9c1.6-0.3,3.4-0.5,5.2-0.8c2.2-0.3,4.2-0.6,6.2-0.7c0.3-0.1,0.5-0.1,0.8-0.1
				c0.7-0.1,1.4-0.1,2.1-0.2c0.5-0.1,1-0.1,1.5-0.1c0.3,0,0.7-0.1,1-0.1c0.5,0,0.9-0.1,1.4-0.1c1.1-0.1,2-0.1,2.9-0.1
				c0.5,0,1,0,1.5,0.1h0.6c0.4,0,0.8,0.1,1.1,0.1c0.9,0.1,1.6,0.1,2.3,0.2c0.7,0.2,1.2,0.4,1.6,0.6c0.4,0.2,0.8,0.4,1,0.7
				c0.2,0.2,0.2,0.3,0.3,0.5C417.8,104,417.8,104.1,417.9,104.2z"/>
			<path class="st4" d="M298,250.2c-0.4,0.8-0.9,1.5-1.5,2.3l-0.4,0.5c-0.3,0.3-0.6,0.6-0.8,0.9l-2.4,2.4l-2,1.9l-1.6,1.6l-0.4,0.3
				l-6.8,6.6l-143,139.1c-2.8,2.8-6.3,4.2-10,4.5c-0.5,0-1,0.1-1.5,0.1c-0.8-0.1-1.6-0.1-2.5-0.3c-3.6-0.6-7.2-2.4-10-5.2l-8.8-8.8
				l-6.7-6.7c-2.9-2.9-4.6-6.4-5.2-10c-1-5.1,0.4-10.3,4.1-14.1l139.1-143.1l6.6-6.7c0,0,0,0,0-0.1l1.9-1.9l4.3-4.5l0.2-0.2l1.4-1.2
				c6.5-4.9,16.1-3.9,22.5,2.4l8.8,8.8l11,10.9C300,235.4,301.3,243.9,298,250.2z"/>
			<path class="st5" d="M290.9,258.1l-1.6,1.6l-0.4,0.3l-6.8,6.6l-0.2-0.2l-23.1-23.1l-21.2-21.2l6.6-6.7c0,0,0,0,0-0.1l1.9-1.9
				l21.3,21.3L290.9,258.1z"/>
			<path class="st6" d="M332.1,212.4l-2.5,2.6l-11.8,12.5l-21.3,25l-0.4,0.5l-5.2,6c-0.6,0.6-1.3,0.9-2,1.1c-0.2,0-0.4,0.1-0.5,0.1
				c-1.1,0.1-2.1-0.3-3-1.1l-21.1-21.1l-19-19c-0.9-1-1.3-2.3-1.1-3.5c0,0,0,0,0-0.1c0.2-0.7,0.5-1.4,1.1-2l5.2-4.4l0.2-0.2l1.4-1.2
				l24.7-21l12.6-11.9l2.6-2.4c0.8-0.8,2-0.8,2.8,0l29.7,29.7l7.6,7.6C332.9,210.4,332.9,211.6,332.1,212.4z"/>
			<polygon class="st5" points="329.6,214.9 317.8,227.5 296.2,205.9 276.8,186.5 289.4,174.6 308.4,193.7 			"/>
		</g>
		<path class="st7" d="M417.4,104.2v0.3c0,0.3-0.1,0.8-0.3,1.3c-0.1,0.5-0.3,0.8-0.5,1.2c-0.1,0.2-0.2,0.3-0.3,0.5
			c-0.2,0.4-0.4,0.7-0.6,1c-0.2,0.2-0.3,0.4-0.4,0.6l-0.2,0.3l-0.2,0.3c-1.1,1.3-2.3,3.3-3.7,5.3c-0.4,0.5-0.8,1-1.1,1.6
			c-0.2,0.3-0.4,0.6-0.6,0.9c-0.2,0.3-0.4,0.6-0.6,0.9c-0.8,1.2-1.6,2.4-2.5,3.8c-0.4,0.7-0.8,1.4-1.2,2.1c-0.5,0.7-0.9,1.4-1.3,2.2
			c-0.4,0.8-0.8,1.5-1.2,2.4c-0.5,0.8-0.9,1.6-1.3,2.4c-0.4,0.8-0.8,1.6-1.3,2.5c-0.4,0.9-0.8,1.8-1.2,2.7c-0.9,1.8-1.7,3.7-2.5,5.6
			c-0.4,1-0.8,1.9-1.2,2.9c-0.4,1-0.8,2-1.1,3.1c-0.4,1.1-0.8,2.1-1.1,3.1c-0.4,1.1-0.8,2.1-1.1,3.2c-0.4,1.1-0.7,2.2-1,3.3
			c-0.2,0.6-0.3,1.1-0.5,1.7c-0.2,0.6-0.4,1.1-0.5,1.6c-0.7,2.3-1.2,4.6-1.8,7c-0.1,0.3-0.2,0.7-0.3,1v0.1c-0.1,0.1-0.1,0.3-0.1,0.4
			c-0.4,1.5-0.9,3-1.4,4.4c-0.5,1.4-1.2,2.7-1.8,4.1c-0.6,1.4-1.3,2.7-2.1,4c-1.6,2.7-3.4,5.3-5.5,7.6c-0.9,1.1-1.9,2-2.9,3
			c-8.1,8-19.4,12.5-30.7,13.1c-0.8,0.1-1.6,0.1-2.4,0.1h-0.5c-1.2,0-2.4-0.1-3.6-0.3c-4.4-0.4-8.6-1.4-12.6-3
			c-0.2-0.1-0.5-0.2-0.7-0.3l7.8,7.9c0.8,0.8,0.8,2,0,2.8l-2.2,2.4l-0.2,0.2l-11.7,12.3l-0.2,0.3L298,250.2l-5.1,5.9l-2.4,2.8
			c-0.4,0.4-0.8,0.6-1.2,0.8c-0.2,0.1-0.5,0.2-0.7,0.2l-0.2,0.2l-6.5,6.3l-0.3,0.2l-143,139.1c-2.7,2.7-6,4.1-9.6,4.5
			c-0.5,0-1,0.1-1.5,0.1c-0.8,0-1.6-0.1-2.4-0.2c-3.8-0.5-7.5-2.3-10.5-5.3l-8.6-8.6l0.3-0.2l2.4-2.4l150.2-150.2l5.5-5.4l3.2-3.2
			l15.9-15.9l12.9-12.9l12.2-12.2l1.4-1.4l56.7-56.7h0.1l33.1-33.2l0.1-0.1c0.3,0,0.5-0.1,0.8-0.1c0.6-0.1,1.1-0.1,1.6-0.2h0.5
			c0.5-0.1,1-0.1,1.5-0.1c0.3,0,0.7-0.1,1-0.1c0.3-0.1,0.6-0.1,0.9-0.1h0.5c1.1-0.1,2-0.1,2.9-0.1c0.5,0,1,0,1.5,0.1
			c0.2,0,0.5,0,0.7,0.1c0.2,0,0.4,0.1,0.6,0.1c0.9,0.1,1.6,0.1,2.3,0.2c0.7,0.2,1.2,0.4,1.6,0.6c0.4,0.2,0.8,0.4,1,0.7
			c0.2,0.2,0.2,0.3,0.3,0.5C417.4,104,417.4,104.1,417.4,104.2z"/>
	</g>
</g>
</svg>
