<?xml version="1.0" encoding="utf-8"?>
<!-- Generator: Adobe Illustrator 22.1.0, SVG Export Plug-In . SVG Version: 6.00 Build 0)  -->
<svg version="1.1" id="_x32_" xmlns="http://www.w3.org/2000/svg" xmlns:xlink="http://www.w3.org/1999/xlink" x="0px" y="0px"
	 viewBox="0 0 512 512" style="enable-background:new 0 0 512 512;" xml:space="preserve">
<style type="text/css">
	.st0{display:none;fill:#F1EBD9;}
	.st1{opacity:0.1;fill:#040000;enable-background:new    ;}
	.st2{fill:#CAA85D;}
	.st3{fill:#FFFFFF;}
	.st4{fill:#AF8B4D;}
	.st5{fill:#F9D68A;}
	.st6{fill:#ECE4D9;}
</style>
<g>
	<rect class="st0" width="512" height="512"/>
	<path class="st1" d="M512,281.8V512H216.3L103.5,399.3l-8-8c-0.9-1.8-1.5-3.8-1.7-5.9c-0.1-0.6-0.1-1.3-0.1-1.9v-1.7l118.1-118.1
		l44.6-44.6l69.9-69.9l57.5,4.4L512,281.8z"/>
	<g>
		<path class="st2" d="M372.7,386.8H139.2c-26.4,0-47.9-21.6-47.9-47.9V196.6c0-26.4,21.6-47.9,47.9-47.9h233.5
			c26.4,0,47.9,21.6,47.9,47.9v142.3C420.7,365.3,399.1,386.8,372.7,386.8z"/>
		<path class="st2" d="M223.5,267.8h-84.3c-26.4,0-47.9-21.6-47.9-47.9v-70.6c0-26.4,21.6-47.9,47.9-47.9h84.3
			c26.4,0,47.9,21.6,47.9,47.9v70.6C271.4,246.2,249.9,267.8,223.5,267.8z"/>
		<rect x="115.6" y="176.7" class="st3" width="280.9" height="145.3"/>
		<path class="st2" d="M420.7,221.4v170.9c0,10.1-8.3,18.4-18.4,18.4H109.7c-2.9,0-5.8-0.7-8.2-2c-3.6-1.8-6.5-4.7-8.3-8.3
			c-1-1.9-1.5-3.9-1.8-6.1c-0.1-0.6-0.1-1.3-0.1-2V288.9l24.2-24.2l2.1-2.1l41.2-41.2L420.7,221.4L420.7,221.4z"/>
		<path class="st4" d="M264.4,221.4L218,267.7L163.7,322l-54.4,54.4l-17.9,17.9c-0.1-0.6-0.1-1.3-0.1-2V288.9l24.2-24.2l2.1-2.1
			l41.2-41.2L264.4,221.4L264.4,221.4z"/>
		<polygon class="st5" points="158.9,221.4 91.3,288.9 158.9,288.9 		"/>
		<rect x="287.3" y="354.8" class="st6" width="109.2" height="36.8"/>
	</g>
</g>
</svg>
