<?xml version="1.0" encoding="UTF-8"?>
<svg width="512px" height="512px" viewBox="0 0 512 512" version="1.1" xmlns="http://www.w3.org/2000/svg" xmlns:xlink="http://www.w3.org/1999/xlink">
    <!-- Generator: Sketch 52.5 (67469) - http://www.bohemiancoding.com/sketch -->
    <title>photo</title>
    <desc>Created with Sketch.</desc>
    <defs>
        <rect id="path-1" x="0" y="0" width="512" height="512" rx="12"></rect>
    </defs>
    <g id="photo" stroke="none" stroke-width="1" fill="none" fill-rule="evenodd">
        <g id="群組-5">
            <mask id="mask-2" fill="white">
                <use xlink:href="#path-1"></use>
            </mask>
            <use id="Mask" fill="#F9D06B" fill-rule="nonzero" xlink:href="#path-1"></use>
            <g id="群組" mask="url(#mask-2)" fill-rule="nonzero">
                <g transform="translate(58.000000, 116.000000)">
                    <path d="M283.863636,38.5686275 L397,38.5686275 L397,281 L4,281 L4,38.5686275 L117.136364,38.5686275 L117.136364,0 L283.863636,0 L283.863636,38.5686275 Z M301.727273,60.6078431 L301.727273,99.1764706 L379.136364,99.1764706 L379.136364,60.6078431 L301.727273,60.6078431 Z M194.545455,247.941176 C247.163129,247.941176 289.818182,208.472005 289.818182,159.784314 C289.818182,111.096623 247.163129,71.627451 194.545455,71.627451 C141.92778,71.627451 99.2727273,111.096623 99.2727273,159.784314 C99.2727273,208.472005 141.92778,247.941176 194.545455,247.941176 Z" id="合併形狀" fill="#E5E5E5"></path>
                    <path d="M191,231 C147.92179,231 113,198.764502 113,159 C113,119.235498 147.92179,87 191,87 C234.07821,87 269,119.235498 269,159 C269,198.764502 234.07821,231 191,231 Z" id="路徑" fill="#E5E5E5"></path>
                    <path d="M200,71.7968333 C197.995664,71.6844654 195.974853,71.627451 193.939394,71.627451 C140.384509,71.627451 96.969697,111.096623 96.969697,159.784314 C96.969697,208.472005 140.384509,247.941176 193.939394,247.941176 C195.974853,247.941176 197.995664,247.884162 200,247.771794 L200,281 L0,281 L0,38.5686275 L200,38.5686275 L200,71.7968333 Z M200,44.0784314 L115.151515,44.0784314 L115.151515,0 L200,0 L200,44.0784314 Z" id="合併形狀" fill="#FFFFFF"></path>
                </g>
            </g>
        </g>
    </g>
</svg>