<?xml version="1.0" encoding="utf-8"?>
<!-- Generator: Adobe Illustrator 22.1.0, SVG Export Plug-In . SVG Version: 6.00 Build 0)  -->
<svg version="1.1" id="_x33_" xmlns="http://www.w3.org/2000/svg" xmlns:xlink="http://www.w3.org/1999/xlink" x="0px" y="0px"
	 viewBox="0 0 512 512" style="enable-background:new 0 0 512 512;" xml:space="preserve">
<style type="text/css">
	.st0{display:none;fill:#E4AE9E;}
	.st1{opacity:0.2;fill:#040000;enable-background:new    ;}
	.st2{fill:#E9F4E9;}
	.st3{fill:#D8ECE2;}
	.st4{fill:#85A29C;}
</style>
<g>
	<rect class="st0" width="512" height="512"/>
	<polygon class="st1" points="512,507 512,512 191.9,512 97.7,417.8 97.7,356.7 97.8,356.6 98.5,355.9 110.1,344.3 114,340.4 
		140.8,313.6 142.2,309.7 160.5,257.3 229.7,224.7 430.3,425.3 	"/>
	<g>
		<polygon class="st2" points="272.3,262.1 269.6,264.6 219.7,311.5 181.4,273 172.1,263.7 172.1,355.5 172.8,355.5 139.4,386.9 
			135.2,390.8 123.3,402 119.1,405.9 106.8,417.5 102.6,421.4 102,422 98.5,425.3 97.7,425.3 97.7,86.7 		"/>
		<polygon class="st3" points="434.7,425.3 98.5,425.3 102.6,421.4 135.2,390.8 139.4,386.9 172.8,355.5 263.5,355.5 219.7,311.4 
			272.3,262.1 		"/>
		<g>
			<rect x="97.8" y="123.6" class="st4" width="26.4" height="3.9"/>
			<rect x="97.8" y="139.1" class="st4" width="26.4" height="3.9"/>
			<rect x="97.8" y="154.6" class="st4" width="44.9" height="3.9"/>
			<rect x="97.8" y="170.1" class="st4" width="26.4" height="3.9"/>
			<rect x="97.8" y="185.6" class="st4" width="26.4" height="3.9"/>
			<rect x="97.8" y="201.1" class="st4" width="26.4" height="3.9"/>
			<rect x="97.8" y="216.6" class="st4" width="26.4" height="3.9"/>
			<rect x="97.8" y="232.2" class="st4" width="44.9" height="3.9"/>
			<rect x="97.8" y="247.7" class="st4" width="26.4" height="3.9"/>
			<rect x="97.8" y="263.2" class="st4" width="26.4" height="3.9"/>
			<rect x="97.8" y="278.7" class="st4" width="26.4" height="3.9"/>
			<rect x="97.8" y="294.2" class="st4" width="26.4" height="3.9"/>
			<rect x="97.8" y="309.7" class="st4" width="44.9" height="3.9"/>
			<rect x="97.8" y="324.9" class="st4" width="26.4" height="3.9"/>
			<rect x="97.8" y="340.4" class="st4" width="26.4" height="3.9"/>
			<rect x="97.8" y="355.9" class="st4" width="26.4" height="3.9"/>
			<rect x="97.8" y="371.4" class="st4" width="26.4" height="3.9"/>
			<rect x="97.8" y="386.9" class="st4" width="44.9" height="3.9"/>
			<rect x="97.8" y="402" class="st4" width="26.4" height="3.9"/>
			<rect x="97.8" y="417.6" class="st4" width="26.4" height="3.9"/>
		</g>
	</g>
</g>
</svg>
