<?xml version="1.0" encoding="utf-8"?>
<!-- Generator: Adobe Illustrator 22.1.0, SVG Export Plug-In . SVG Version: 6.00 Build 0)  -->
<svg version="1.1" id="_x31_" xmlns="http://www.w3.org/2000/svg" xmlns:xlink="http://www.w3.org/1999/xlink" x="0px" y="0px"
	 viewBox="0 0 512 512" style="enable-background:new 0 0 512 512;" xml:space="preserve">
<style type="text/css">
	.st0{display:none;fill:#9AD4DA;}
	.st1{opacity:0.1;fill:#040000;enable-background:new    ;}
	.st2{fill:#44494F;}
	.st3{fill:#FFFFFF;}
	.st4{opacity:6.000000e-02;fill:#0D0D0D;enable-background:new    ;}
	.st5{fill:#8BC66F;}
	.st6{fill:#F4DB6D;}
	.st7{fill:#E06276;}
	.st8{opacity:0.5;}
	.st9{fill:#CDE3DF;}
	.st10{opacity:0.5;fill:#C9E5E1;enable-background:new    ;}
	.st11{fill:#C9E5E1;}
	.st12{opacity:0.5;fill:#CDE3DF;enable-background:new    ;}
	.st13{fill:#7BCAD4;}
	.st14{fill:#4F9FD8;}
	.st15{fill:#CCE3AE;}
	.st16{opacity:0.8;fill:#F9F8C9;enable-background:new    ;}
	.st17{fill:#7BC48E;}
</style>
<g>
	<rect class="st0" width="512" height="512"/>
	<path class="st1" d="M512,177.4V512H177.6l-77.7-77.7l-7.2-7.2l-3.4-3.4l-6.1-6.1V121.7h-0.2V90.9h0.3c-0.2-0.8-0.3-1.6-0.3-2.4
		c0-5.9,4.8-10.8,10.8-10.8h318.4L512,177.4z"/>
	<g>
		<path class="st2" d="M428.9,88.5v345.8H83.3V121.7h-0.2V90.9h0.3c-0.2-0.8-0.3-1.6-0.3-2.4c0-5.9,4.8-10.8,10.8-10.8h324.2
			C424.1,77.7,428.9,82.5,428.9,88.5z"/>
		<rect x="89.3" y="120" class="st3" width="333.3" height="307.1"/>
		<rect x="89.3" y="120" class="st4" width="333.3" height="14"/>
		<g>
			<ellipse class="st5" cx="168.1" cy="99.7" rx="8.2" ry="8.7"/>
			<ellipse class="st6" cx="138.2" cy="99.7" rx="8.2" ry="8.7"/>
			<ellipse class="st7" cx="108.4" cy="99.7" rx="8.2" ry="8.7"/>
		</g>
		<g class="st8">
			<g>
				<rect x="175.6" y="329.3" class="st9" width="43.8" height="36.5"/>
				<g>
					<rect x="226.3" y="358.3" class="st9" width="29.3" height="5"/>
					<rect x="226.3" y="330.8" class="st9" width="60.4" height="5.3"/>
					<rect x="226.3" y="344.5" class="st9" width="60.4" height="5.3"/>
				</g>
			</g>
			<g>
				<rect x="175.6" y="329.3" class="st10" width="43.8" height="36.5"/>
				<g class="st8">
					<rect x="226.3" y="358.3" class="st11" width="29.3" height="5"/>
					<rect x="226.3" y="330.8" class="st11" width="60.4" height="5.3"/>
					<rect x="226.3" y="344.5" class="st11" width="60.4" height="5.3"/>
				</g>
			</g>
		</g>
		<rect x="225.8" y="400.5" class="st12" width="60.4" height="5.3"/>
		<g>
			<rect x="104.6" y="207.6" class="st12" width="61.8" height="17.2"/>
			<rect x="104.6" y="235.9" class="st12" width="61.8" height="17.2"/>
			<rect x="104.6" y="264.3" class="st12" width="61.8" height="17.2"/>
			<rect x="104.6" y="292.7" class="st12" width="61.8" height="17.2"/>
		</g>
		<rect x="103.3" y="181.5" class="st12" width="305.5" height="14.6"/>
		<rect x="103.3" y="382" class="st12" width="305.5" height="3.1"/>
		<g class="st8">
			<g>
				<rect x="298.7" y="328.8" class="st9" width="43.8" height="36.5"/>
				<g>
					<rect x="349.4" y="357.8" class="st9" width="29.3" height="5"/>
					<rect x="349.4" y="330.3" class="st9" width="60.4" height="5.3"/>
					<rect x="349.4" y="344" class="st9" width="60.4" height="5.3"/>
				</g>
			</g>
			<g>
				<rect x="298.7" y="328.8" class="st10" width="43.8" height="36.5"/>
				<g class="st8">
					<rect x="349.4" y="357.8" class="st11" width="29.3" height="5"/>
					<rect x="349.4" y="330.3" class="st11" width="60.4" height="5.3"/>
					<rect x="349.4" y="344" class="st11" width="60.4" height="5.3"/>
				</g>
			</g>
		</g>
		<path class="st13" d="M377.2,152.2c-0.5-2-1.5-3.9-2.8-5.4c-1.4-1.5-3.2-2.7-5.2-3.4c-0.2-0.1-0.4-0.1-0.7-0.2
			c-2-0.5-3.9-0.6-5.8-0.2c-2.2,0.5-4.2,1.5-5.9,3.1l9.1,9.2l0,0l0,0l0,0l0,0.1l0,0l0-0.1l-9.1-9.2c-1.6,1.5-2.8,3.5-3.5,5.7
			c-0.6,2.3-0.6,4.6,0.1,6.7c0.6,2.1,1.8,4.1,3.5,5.6c0,0,0,0,0,0c1.4,1.3,3.1,2.2,5,2.8c0.2,0.1,0.4,0.1,0.7,0.2
			c2.1,0.5,4.3,0.3,6.3-0.3c0,0,0,0,0.1,0c2-0.6,3.7-1.7,5.1-3.2l0,0l0,0l0,0l0,0c1.4-1.4,2.4-3.2,3-5.3
			C377.6,156.1,377.6,154.1,377.2,152.2z"/>
		<path class="st14" d="M405.3,152.2c-0.5-2-1.5-3.9-2.8-5.4c-1.4-1.5-3.2-2.7-5.2-3.4c-0.2-0.1-0.4-0.1-0.7-0.2
			c-2-0.5-3.9-0.6-5.8-0.2c-2.2,0.5-4.2,1.5-5.9,3.1l9.1,9.2l0,0h0l0,0l0,0.1l0,0l0-0.1l-9.1-9.2c-1.6,1.5-2.8,3.5-3.5,5.7
			c-0.6,2.3-0.6,4.6,0.1,6.7c0.6,2.1,1.8,4.1,3.5,5.6c0,0,0,0,0,0c1.4,1.3,3.1,2.2,5,2.8c0.2,0.1,0.4,0.1,0.7,0.2
			c2.1,0.5,4.3,0.3,6.3-0.3c0,0,0,0,0.1,0c2-0.6,3.7-1.7,5.1-3.2l0,0l0,0l0,0l0,0c1.4-1.4,2.4-3.2,3-5.3
			C405.7,156.1,405.7,154.1,405.3,152.2z"/>
		<g>
			<path class="st2" d="M217.2,169.4v-19.7h-3.9v22.8h16.4v-3.1L217.2,169.4L217.2,169.4z"/>
			<path class="st2" d="M251.7,158c-0.1-0.9-0.2-1.7-0.3-2.4c-0.2-0.7-0.5-1.4-0.8-1.9c-0.3-0.6-0.8-1.2-1.4-1.7
				c-0.9-0.8-1.8-1.3-2.9-1.7c-1.1-0.4-2.4-0.6-3.7-0.6c-1.4,0-2.7,0.2-3.8,0.6c-1.1,0.4-2,1-2.9,1.7c-0.6,0.6-1.1,1.1-1.4,1.7
				c-0.4,0.6-0.6,1.2-0.8,1.9c-0.2,0.7-0.3,1.5-0.3,2.4c0,0.9-0.1,2-0.1,3.2c0,1.2,0.1,2.3,0.1,3.2c0.1,0.9,0.2,1.7,0.3,2.4
				c0.2,0.7,0.5,1.4,0.8,2c0.3,0.6,0.8,1.2,1.4,1.7c0.9,0.8,1.8,1.3,2.9,1.7c1.1,0.4,2.4,0.6,3.8,0.6c1.4,0,2.7-0.2,3.7-0.6
				c1.1-0.4,2-1,2.9-1.7c0.6-0.5,1.1-1.1,1.4-1.7c0.4-0.6,0.6-1.3,0.8-2c0.2-0.7,0.3-1.5,0.3-2.4c0-0.9,0.1-2,0.1-3.2
				C251.8,159.9,251.7,158.9,251.7,158z M247.8,164c0,0.8-0.1,1.4-0.2,1.9c-0.1,0.5-0.3,0.9-0.5,1.3c-0.2,0.4-0.5,0.7-0.8,1
				c-0.5,0.5-1.1,0.8-1.7,1.1c-0.6,0.3-1.3,0.4-2.1,0.4c-0.8,0-1.5-0.1-2.1-0.4c-0.7-0.3-1.2-0.6-1.7-1.1c-0.3-0.3-0.6-0.6-0.8-1
				c-0.2-0.4-0.4-0.8-0.5-1.3c-0.1-0.5-0.2-1.2-0.2-1.9c-0.1-0.7-0.1-1.7-0.1-2.8c0-1.1,0-2.1,0.1-2.9c0-0.8,0.1-1.4,0.2-1.9
				c0.1-0.6,0.3-1,0.5-1.3c0.2-0.4,0.5-0.7,0.8-1c1-0.9,2.3-1.4,3.9-1.4c1.5,0,2.8,0.5,3.8,1.4c0.3,0.3,0.6,0.6,0.8,1
				s0.4,0.8,0.5,1.3c0.1,0.6,0.2,1.2,0.2,1.9c0.1,0.8,0.1,1.7,0.1,2.9C247.8,162.3,247.8,163.2,247.8,164z"/>
			<path class="st2" d="M265.9,160.2v3h5.5v1.2c0,0.8-0.1,1.4-0.3,2c-0.2,0.6-0.5,1.1-1,1.6c-0.5,0.5-1.1,0.9-1.9,1.2
				c-0.7,0.3-1.5,0.4-2.4,0.4c-1.5,0-2.8-0.5-3.8-1.4c-0.3-0.3-0.6-0.6-0.8-1c-0.2-0.4-0.4-0.8-0.5-1.3c-0.1-0.6-0.2-1.2-0.2-1.9
				c-0.1-0.8-0.1-1.7-0.1-2.9s0-2.1,0.1-2.9c0.1-0.8,0.1-1.4,0.2-1.9c0.2-0.6,0.3-1,0.5-1.3c0.2-0.4,0.5-0.7,0.8-1
				c1-0.9,2.3-1.4,3.8-1.4c1.4,0,2.6,0.4,3.5,1c0.9,0.7,1.6,1.7,1.9,2.9h3.9c-0.2-0.9-0.5-1.8-1-2.7c-0.5-0.8-1.1-1.6-1.9-2.3
				c-0.8-0.6-1.7-1.1-2.8-1.5c-1.1-0.4-2.3-0.6-3.6-0.6c-1.4,0-2.7,0.2-3.8,0.6c-1.1,0.4-2,1-2.9,1.7c-0.7,0.6-1.1,1.1-1.5,1.7
				c-0.4,0.6-0.6,1.2-0.8,1.9c-0.2,0.7-0.3,1.5-0.3,2.4c-0.1,0.9-0.1,2-0.1,3.2c0,1.2,0,2.3,0.1,3.2c0,0.9,0.1,1.7,0.3,2.4
				c0.2,0.7,0.4,1.4,0.8,2c0.4,0.6,0.8,1.2,1.5,1.7c0.8,0.8,1.8,1.3,2.9,1.7c1.1,0.4,2.4,0.6,3.8,0.6c1.4,0,2.7-0.2,3.8-0.6
				c1.2-0.4,2.3-1.1,3.3-1.9c0.8-0.8,1.4-1.7,1.8-2.7s0.5-2.3,0.5-3.7v-3.5L265.9,160.2L265.9,160.2z"/>
			<path class="st2" d="M298.6,158c-0.1-0.9-0.2-1.7-0.3-2.4c-0.2-0.7-0.5-1.4-0.8-1.9c-0.4-0.6-0.9-1.2-1.5-1.7
				c-0.9-0.8-1.8-1.3-2.9-1.7c-1.1-0.4-2.4-0.6-3.7-0.6c-1.4,0-2.7,0.2-3.8,0.6c-1.1,0.4-2,1-2.9,1.7c-0.6,0.6-1.1,1.1-1.4,1.7
				c-0.4,0.6-0.6,1.2-0.8,1.9c-0.2,0.7-0.3,1.5-0.3,2.4c0,0.9-0.1,2-0.1,3.2c0,1.2,0.1,2.3,0.1,3.2c0.1,0.9,0.2,1.7,0.3,2.4
				c0.2,0.7,0.5,1.4,0.8,2c0.3,0.6,0.8,1.2,1.4,1.7c0.9,0.8,1.8,1.3,2.9,1.7c1.1,0.4,2.4,0.6,3.8,0.6c1.4,0,2.7-0.2,3.7-0.6
				c1.1-0.4,2-1,2.9-1.7c0.6-0.5,1.1-1.1,1.5-1.7c0.3-0.6,0.6-1.3,0.8-2c0.2-0.7,0.3-1.5,0.3-2.4c0-0.9,0.1-2,0.1-3.2
				C298.7,159.9,298.6,158.9,298.6,158z M294.7,164c0,0.8-0.1,1.4-0.2,1.9c-0.1,0.5-0.3,0.9-0.5,1.3c-0.2,0.4-0.5,0.7-0.8,1
				c-0.5,0.5-1.1,0.8-1.7,1.1c-0.6,0.3-1.3,0.4-2.1,0.4c-0.8,0-1.5-0.1-2.1-0.4c-0.7-0.3-1.2-0.6-1.7-1.1c-0.3-0.3-0.6-0.6-0.8-1
				c-0.2-0.4-0.4-0.8-0.5-1.3c-0.1-0.5-0.2-1.2-0.2-1.9c-0.1-0.7-0.1-1.7-0.1-2.8c0-1.1,0-2.1,0.1-2.9c0-0.8,0.1-1.4,0.2-1.9
				c0.1-0.6,0.3-1,0.5-1.3c0.2-0.4,0.5-0.7,0.8-1c1-0.9,2.3-1.4,3.9-1.4c1.5,0,2.8,0.5,3.8,1.4c0.3,0.3,0.6,0.6,0.8,1
				c0.2,0.4,0.4,0.8,0.5,1.3c0.1,0.6,0.2,1.2,0.2,1.9c0.1,0.8,0.1,1.7,0.1,2.9C294.8,162.3,294.8,163.2,294.7,164z"/>
		</g>
		<g>
			<rect x="175.4" y="207.8" class="st15" width="233.4" height="113"/>
			<ellipse class="st16" cx="281.2" cy="229.7" rx="16.8" ry="16.4"/>
			<g class="st8">
				<path class="st17" d="M309.4,320.8H175.6l47.6-55c10.6-12.3,28.1-12.3,38.7,0l18.1,20.9L309.4,320.8z"/>
			</g>
			<g class="st8">
				<path class="st17" d="M408.7,296.2v24.6H252.3l29.6-34.1l39.4-45.3c10.9-12.6,28.9-12.6,39.8,0L408.7,296.2z"/>
			</g>
		</g>
	</g>
</g>
</svg>
